<svg width="64" height="64" viewBox="0 0 64 64">
<defs>
				<linearGradient id="dark" x1="50%" y1="100%"
					x2="50%" y2="0%">
					<stop stop-color="#0033cc" offset="0.00" />
					<stop stop-color="#000099" offset="1.00" />
				</linearGradient>
				<linearGradient id="medium" x1="50%" y1="100%"
					x2="50%" y2="0%">
					<stop stop-color="#0099ff" offset="0.00" />
					<stop stop-color="#0033cc" offset="1.00" />
				</linearGradient>
				<linearGradient id="light" x1="50%" y1="100%"
					x2="50%" y2="0%">
					<stop stop-color="#0066e5" offset="0.00" stop-opacity="0.0"/>
					<stop stop-color="#ffffff" offset="1.00" />
				</linearGradient>
</defs>
		<g>
			<path fill="none" d=" M64.00 64.00 H0.00 V0.00 H64.00 V64.00 Z" />
			<g id="lt">
				<path fill="url(#dark)" d=" M14.83 40.83 C15.58 40.07 16.00 39.07 16.01
					38.00 C16.01 36.93 15.58 35.93 14.83 35.17 S13.07 34.00 12.01 34.00
					C10.93 34.00 9.93 34.42 9.17 35.17 L1.17 43.17 C-0.39 44.73 -0.39
					47.27 1.17 48.83 L9.17 56.83 C9.93 57.58 10.93 58.00 12.01 58.00 C13.07
					58.00 14.07 57.58 14.83 56.83 S16.00 55.07 16.01 54.00 C16.01 52.93
					15.58 51.93 14.83 51.17 C14.83 51.17 11.59 47.93 9.66 46.00 C10.82
					44.84 12.54 43.12 14.83 40.83 Z" />
				<path fill="url(#medium)" d=" M10.59 36.59 L2.59 44.59 C1.81 45.37 1.81
					46.63 2.59 47.41 L10.59 55.41 C11.37 56.19 12.63 56.19 13.41 55.41
					C13.81 55.02 14.00 54.51 14.01 54.00 C14.01 53.49 13.81 52.98 13.41
					52.59 C13.41 52.59 8.74 47.92 6.83 46.00 C8.10 44.72 10.30 42.52 13.41
					39.41 C13.81 39.02 14.00 38.51 14.01 38.00 C14.01 37.49 13.81 36.98
					13.41 36.59 C12.63 35.81 11.37 35.81 10.59 36.59 Z" />
				<path fill="url(#light)" stop-opacity="0.75"
					opacity="0.75" d=" M5.83 46.00 C5.83 45.74 5.93 45.49 6.12 45.29 L12.71
					38.71 C12.90 38.52 13.00 38.27 13.01 38.00 C13.01 37.73 12.90 37.48
					12.71 37.29 S12.27 37.00 12.01 37.00 C11.73 37.00 11.48 37.10 11.29
					37.29 L3.29 45.29 C3.10 45.49 3.00 45.74 3.01 46.00 L5.83 46.00 Z"
					/>
			</g>
			<g id="gt">
				<path fill="url(#dark)" d=" M54.83 35.17 C54.07 34.42 53.07 34.00 52.01
					34.00 C50.93 34.00 49.93 34.42 49.17 35.17 C48.42 35.93 48.00 36.93
					48.01 38.00 C48.01 39.07 48.42 40.07 49.17 40.83 C49.17 40.83 52.41
					44.07 54.34 46.00 C53.18 47.16 51.46 48.88 49.17 51.17 C48.42 51.93
					48.00 52.93 48.01 54.00 C48.01 55.07 48.42 56.07 49.17 56.83 S50.93
					58.00 52.01 58.00 C53.07 58.00 54.07 57.58 54.83 56.83 L62.83 48.83
					C64.39 47.27 64.39 44.73 62.83 43.17 L54.83 35.17 Z" />
				<path fill="url(#medium)" d=" M50.59 36.59 C50.19 36.98 50.00 37.49 50.01
					38.00 C50.01 38.51 50.19 39.02 50.59 39.41 C50.59 39.41 55.25 44.08
					57.17 46.00 C55.89 47.28 53.70 49.48 50.59 52.59 C50.19 52.98 50.00
					53.49 50.01 54.00 C50.01 54.51 50.19 55.02 50.59 55.41 C51.37 56.19
					52.63 56.19 53.41 55.41 L61.41 47.41 C62.19 46.63 62.19 45.37 61.41
					44.59 L53.41 36.59 C52.63 35.81 51.37 35.81 50.59 36.59 Z" />
				<path fill="url(#light)" stop-opacity="0.75"
					opacity="0.75" d=" M57.88 45.29 C58.07 45.49 58.17 45.74 58.17 46.00
					L61.00 46.00 C61.01 45.74 60.90 45.49 60.71 45.29 L52.71 37.29 C52.52
					37.10 52.27 37.00 52.01 37.00 C51.73 37.00 51.48 37.10 51.29 37.29
					S51.00 37.73 51.01 38.00 C51.01 38.27 51.10 38.52 51.29 38.71 L57.88
					45.29 Z" />
			</g>
			<g>
				<path fill="url(#dark)" d=" M56.01 8.00 C53.79 8.00 52.00 9.79 52.01
					12.00 C52.01 9.79 50.21 8.00 48.01 8.00 C45.79 8.00 44.00 9.79 44.01
					12.00 C44.01 9.79 42.21 8.00 40.01 8.00 C38.92 8.00 37.95 8.43 37.23
					9.12 C36.21 7.27 34.26 6.00 32.01 6.00 C29.74 6.00 27.79 7.27 26.77
					9.12 C26.05 8.43 25.08 8.00 24.01 8.00 C21.79 8.00 20.00 9.79 20.01
					12.00 C20.01 9.79 18.21 8.00 16.01 8.00 C13.79 8.00 12.00 9.79 12.01
					12.00 C12.01 9.79 10.21 8.00 8.01 8.00 C5.79 8.00 4.00 9.79 4.01 12.00
					C4.01 19.48 6.91 26.51 12.20 31.80 C13.76 33.36 16.30 33.36 17.86
					31.80 C19.42 30.24 19.42 27.70 17.86 26.14 C19.39 27.67 21.85 27.69
					23.42 26.22 L14.42 44.21 C13.43 46.19 14.24 48.59 16.21 49.58 C18.19
					50.57 20.59 49.76 21.58 47.79 C21.58 47.79 21.92 47.11 22.47 46.00
					L41.53 46.00 C41.90 46.74 42.19 47.34 42.42 47.79 C43.41 49.77 45.81
					50.57 47.79 49.58 S50.57 46.19 49.58 44.21 L40.59 26.22 C42.15 27.69
					44.61 27.67 46.14 26.14 C44.58 27.71 44.58 30.24 46.14 31.80 C47.70
					33.36 50.24 33.36 51.80 31.80 C57.09 26.51 60.00 19.48 60.01 12.00
					C60.01 9.79 58.21 8.00 56.01 8.00 Z M24.64 23.77 C24.78 22.60 24.41
					21.38 23.51 20.49 L23.52 20.49 C24.14 21.11 24.92 21.47 25.73 21.60
					L24.64 23.77 Z M38.27 21.60 C39.07 21.47 39.84 21.12 40.46 20.51 C39.59
					21.41 39.22 22.61 39.35 23.77 L38.27 21.60 Z" />
				<g>
					<path fill="url(#medium)" d=" M22.10 24.73 C22.88 23.95 22.88 22.68
						22.10 21.90 C19.46 19.25 18.00 15.74 18.01 12.00 C18.01 10.90
						17.10 10.00 16.01 10.00 C14.90 10.00 14.00 10.90 14.01 12.00 C14.01
						16.81 15.87 21.33 19.27 24.73 C20.05 25.51 21.32 25.51 22.10 24.73
						Z" />

					<path fill="url(#medium)" d=" M27.76 19.07 C28.54 18.29 28.54 17.02
						27.76 16.24 C26.62 15.11 26.00 13.60 26.01 12.00 C26.01 10.90
						25.10 10.00 24.01 10.00 C22.90 10.00 22.00 10.90 22.01 12.00 C22.01
						14.67 23.04 17.18 24.93 19.07 C25.71 19.85 26.98 19.85 27.76 19.07
						Z" />
					<path fill="url(#medium)" d=" M36.24 19.07 C37.02 19.85 38.29 19.85
						39.07 19.07 C40.96 17.19 42.00 14.67 42.01 12.00 C42.01 10.90
						41.10 10.00 40.01 10.00 C38.90 10.00 38.00 10.90 38.01 12.00 C38.01
						13.60 37.38 15.11 36.24 16.24 C35.46 17.02 35.46 18.29 36.24 19.07
						Z" />
					<path fill="url(#medium)" d=" M41.90 24.73 C42.68 25.51 43.94 25.51
						44.73 24.73 C48.13 21.33 50.00 16.81 50.01 12.00 C50.01 10.90
						49.10 10.00 48.01 10.00 C46.90 10.00 46.00 10.90 46.01 12.00 C46.01
						15.74 44.54 19.26 41.90 21.90 C41.12 22.68 41.12 23.95 41.90 24.73
						Z" />
					<path fill="url(#medium)" d=" M16.44 27.56 C12.29 23.40 10.00 17.88
						10.01 12.00 C10.01 10.90 9.10 10.00 8.01 10.00 C6.90 10.00 6.00
						10.90 6.01 12.00 C6.01 18.94 8.70 25.47 13.61 30.39 C14.39 31.17
						15.66 31.17 16.44 30.39 C17.23 29.60 17.23 28.34 16.44 27.56 Z"
						/>
					<path fill="url(#medium)" d=" M56.00 10.00 C54.90 10.00 54.00 10.90
						54.01 12.00 C54.01 17.88 51.71 23.40 47.56 27.56 C46.78 28.34
						46.78 29.60 47.56 30.38 C48.34 31.17 49.60 31.17 50.38 30.38 C55.29
						25.47 58.00 18.94 58.01 12.00 C58.01 10.90 57.10 10.00 56.01 10.00
						L56.00 10.00 Z" />
					<path fill="url(#medium)" d=" M36.00 12.00 C36.01 9.79 34.21 8.00 32.01
						8.00 C29.79 8.00 28.00 9.79 28.01 12.00 C28.01 14.21 29.79 16.00
						32.01 16.00 C34.21 16.00 36.00 14.21 36.01 12.00 L36.00 12.00
						Z" />
					<path fill="url(#medium)" d=" M47.79 45.10 L33.79 17.10 C33.45 16.43
						32.76 16.00 32.01 16.00 C31.24 16.00 30.55 16.43 30.21 17.10 L16.21
						45.10 C15.72 46.09 16.12 47.29 17.11 47.79 S19.30 47.88 19.79
						46.89 C19.79 46.89 20.35 45.76 21.24 44.00 L42.76 44.00 C43.35
						45.17 43.84 46.14 44.21 46.89 C44.70 47.88 45.91 48.28 46.89 47.79
						C47.87 47.30 48.28 46.09 47.79 45.10 Z M24.14 38.19 C24.42 37.64
						24.68 37.11 24.97 36.54 C25.44 36.73 26.00 36.95 26.61 37.20 C25.75
						37.55 24.92 37.88 24.14 38.19 Z M32.00 22.47 C32.21 22.90 32.48
						23.43 32.76 24.00 L31.24 24.00 C31.52 23.43 31.79 22.90 32.01
						22.47 L32.00 22.47 Z M32.00 31.07 C32.46 31.38 32.93 31.69 33.40
						32.00 L30.61 32.00 C31.07 31.69 31.54 31.38 32.01 31.07 L32.00
						31.07 Z M30.39 40.00 C30.93 39.78 31.47 39.57 32.01 39.35 C32.53
						39.57 33.07 39.78 33.62 40.00 L30.39 40.00 Z M37.38 37.20 C38.01
						36.95 38.56 36.73 39.03 36.54 C39.31 37.10 39.59 37.65 39.86 38.19
						C39.09 37.88 38.25 37.54 37.38 37.20 Z" />
				</g>
				<g>
					<path fill="url(#light)"
						opacity="0.75" d=" M35.00 12.00 C35.01 10.35
						33.65 9.00 32.01 9.00 C30.35 9.00 29.00 10.35 29.01 12.00 L35.00
						12.00 Z" />
					<path fill="url(#light)"
						opacity="0.75" d=" M29.66 32.00 C29.66 31.67
						29.77 31.35 30.05 31.17 L31.45 30.24 C31.78 30.01 32.22 30.01
						32.56 30.24 L33.95 31.17 C34.23 31.36 34.34 31.67 34.35 32.00
						L40.12 32.00 L32.90 17.55 C32.72 17.21 32.38 17.00 32.01 17.00
						C31.62 17.00 31.27 17.21 31.10 17.55 C31.10 17.56 27.45 24.85
						23.88 32.00 L29.66 32.00 Z M30.34 23.55 L31.11 22.02 C31.28 21.69
						31.62 21.47 32.01 21.47 C32.38 21.47 32.73 21.69 32.90 22.02 L33.66
						23.55 C33.81 23.86 33.80 24.23 33.62 24.53 C33.43 24.82 33.11
						25.00 32.76 25.00 L31.24 25.00 C30.89 25.00 30.57 24.82 30.39
						24.52 C30.20 24.23 30.19 23.86 30.34 23.55 Z" />
					<path fill="url(#light)"
						opacity="0.75" d=" M56.00 11.00 C55.45 11.00
						55.00 11.45 55.01 12.00 C55.01 15.07 54.40 18.05 53.26 20.81 L55.11
						21.57 C56.35 18.58 57.00 15.34 57.01 12.00 C57.01 11.45 56.55
						11.00 56.01 11.00 L56.00 11.00 Z" />
					<path fill="url(#light)"
						opacity="0.75" d=" M48.00 11.00 C47.45 11.00
						47.00 11.45 47.01 12.00 C47.01 14.00 46.61 15.94 45.87 17.74 L47.72
						18.51 C48.56 16.47 49.00 14.27 49.01 12.00 C49.01 11.45 48.55
						11.00 48.01 11.00 L48.00 11.00 Z" />
					<path fill="url(#light)"
						opacity="0.75" d=" M40.00 11.00 C39.45 11.00
						39.00 11.45 39.01 12.00 C39.01 12.94 38.82 13.84 38.47 14.68 L40.32
						15.45 C40.77 14.37 41.00 13.20 41.01 12.00 C41.01 11.45 40.55
						11.00 40.01 11.00 L40.00 11.00 Z" />
					<path fill="url(#light)"
						opacity="0.75" d=" M16.00 11.00 C15.45 11.00
						15.00 11.45 15.01 12.00 C15.01 14.27 15.44 16.47 16.28 18.51 L18.13
						17.74 C17.39 15.95 17.00 14.00 17.01 12.00 C17.01 11.45 16.55
						11.00 16.01 11.00 L16.00 11.00 Z" />
					<path fill="url(#light)"
						opacity="0.75" d=" M8.00 11.00 C7.45 11.00
						7.00 11.45 7.01 12.00 C7.01 15.34 7.65 18.58 8.89 21.57 L10.74
						20.80 C9.60 18.05 9.00 15.07 9.01 12.00 C9.01 11.45 8.55 11.00
						8.01 11.00 L8.00 11.00 Z" />
					<path fill="url(#light)"
						opacity="0.75" d=" M24.00 11.00 C23.45 11.00
						23.00 11.45 23.01 12.00 C23.01 13.20 23.23 14.37 23.68 15.44 L25.53
						14.68 C25.18 13.84 25.00 12.94 25.01 12.00 C25.01 11.45 24.55
						11.00 24.01 11.00 L24.00 11.00 Z" />
				</g>
			</g>
		</g>
</svg>