<svg width="65" height="65" viewBox="0 0 65 65">
<defs>
				<linearGradient id="dark" x1="50%" y1="100%"
					x2="50%" y2="0%">
					<stop stop-color="#0033cc" offset="0.00" />
					<stop stop-color="#000099" offset="1.00" />
				</linearGradient>
				<linearGradient id="medium" x1="50%" y1="100%"
					x2="50%" y2="0%">
					<stop stop-color="#0099ff" offset="0.00" />
					<stop stop-color="#0033cc" offset="1.00" />
				</linearGradient>
				<linearGradient id="light" x1="50%" y1="100%"
					x2="50%" y2="0%">
					<stop stop-color="#ffffff" offset="0.00" stop-opacity="0.0"/>
					<stop stop-color="#ffffff" offset="1.00" />
				</linearGradient>
</defs>
		<g>
			<g>
				<path fill="url(#dark)" d=" M64.00 56.00 C64.01 60.42 60.42 64.00 56.01
					64.00 L8.00 64.00 C3.58 64.00 0.00 60.42 0.01 56.00 L0.00 8.00 C0.01
					3.58 3.58 0.00 8.01 0.00 L56.00 0.00 C60.42 0.00 64.00 3.58 64.01
					8.00 L64.00 56.00 Z" />
				<path fill="url(#medium)" d=" M62.00 56.00 C62.01 59.31 59.31 62.00 56.01
					62.00 L8.00 62.00 C4.69 62.00 2.00 59.31 2.01 56.00 L2.00 8.00 C2.01
					4.69 4.69 2.00 8.01 2.00 L56.00 2.00 C59.31 2.00 62.00 4.69 62.01
					8.00 L62.00 56.00 Z" />
				<path fill="url(#light)"
					opacity="0.75" d=" M61.00 32.00 V8.00 C61.01 5.24 58.76 3.00 56.01
					3.00 L8.00 3.00 C5.24 3.00 3.00 5.24 3.01 8.00 L3.00 32.00 H61.00
					Z" />
			</g>
		<g style="fill:none;stroke:#ffffff;stroke-width:2.0000000">
				<path style="stroke-linecap:round;stroke-linejoin:round" d=" M12.00 38.00 L4.00 46.00 L12.00 54.00"
					/>
				<path style="stroke-linecap:round;stroke-linejoin:round" d=" M52.00 38.00 L60.00 46.00 L52.00 54.00"
					/>
				<path style="stroke-linecap:round;stroke-linejoin:round" d=" M18.00 46.00 L32.00 18.00 L46.00 46.00"
					/>
				<path style="stroke-linecap:round;stroke-linejoin:round" d=" M20.00 42.00 H44.00 L24.00 34.00 H40.00
					L28.00 26.00 H36.00" />
				<path style="stroke-linecap:round;stroke-linejoin:round" d=" M44.00 42.00 H20.00 L40.00 34.00 H24.00
					L36.00 26.00 H28.00" />
				<path style="stroke-linecap:round;stroke-linejoin:round" d=" M34.00 12.00 C34.01 13.10 33.10 14.00
					32.01 14.00 C30.90 14.00 30.00 13.10 30.01 12.00 C30.01 10.90 30.90
					10.00 32.01 10.00 C33.10 10.00 34.00 10.90 34.01 12.00 Z" />
				<path style="stroke-linecap:round;stroke-linejoin:round" d=" M26.34 17.66 C24.90 16.21 24.00 14.21
					24.01 12.00" />
				<path style="stroke-linecap:round;stroke-linejoin:round" d=" M40.00 12.00 C40.01 14.21 39.10 16.21
					37.66 17.66" />
				<path style="stroke-linecap:round;stroke-linejoin:round" d=" M20.69 23.31 C17.79 20.42 16.00 16.42
					16.01 12.00" />
				<path style="stroke-linecap:round;stroke-linejoin:round" d=" M48.00 12.00 C48.01 16.42 46.21 20.42
					43.31 23.31" />
				<path style="stroke-linecap:round;stroke-linejoin:round" d=" M15.03 28.97 C10.69 24.63 8.00 18.63 8.01
					12.00" />
				<path style="stroke-linecap:round;stroke-linejoin:round" d=" M56.00 12.00 C56.01 18.63 53.31 24.63
					48.97 28.97" />
			</g>
		</g>
</svg>