<svg width="32" height="32" viewBox="0 0 32 32">
		<g id="refresh">
			<path fill="none" d="M32,32H0V0h32V32z"/>
			<linearGradient id="refresh1" x1="50%" y1="100%"
					x2="50%" y2="0%">
				<stop  offset="0" style="stop-color:#669900"/>
				<stop  offset="1" style="stop-color:#336600"/>
			</linearGradient>
			<path fill="url(#refresh1)" d="M7.21,5.11l-4.1,8.21c-0.27,0.53-0.41,1.09-0.41,1.62c0,0.56,0.15,1.11,0.45,1.59
				c0.24,0.39,0.61,0.67,1,0.92C4.87,23.38,9.88,28,16.01,28c1.09,0,1.99-0.9,2-2L18,20c0.01-1.1-0.9-2-1.99-2
				c-0.74,0-1.27-0.46-1.62-1.05c0.15-0.15,0.35-0.24,0.46-0.42c0.3-0.49,0.45-1.03,0.45-1.59c0-0.53-0.14-1.09-0.4-1.62L10.79,5.1
				C10.45,4.43,9.76,4,9.01,4C8.24,4,7.55,4.43,7.21,5.11z"/>
			<linearGradient id="refresh2" x1="50%" y1="100%"
					x2="50%" y2="0%">
				<stop  offset="0" style="stop-color:#99CC33"/>
				<stop  offset="1" style="stop-color:#669900"/>
			</linearGradient>
			<path fill="url(#refresh2)" d="M12,16c0.01,2.21,1.79,4,4.01,4L16,26c-5.52,0-10-4.48-9.99-10C4.9,16,4.4,15.19,4.9,14.21L9,6
				l4.1,8.21c0.5,0.98,0,1.79-1.09,1.79H12z"/>
			<linearGradient id="refresh3" x1="50%" y1="100%"
					x2="50%" y2="0%">
				<stop  offset="0" style="stop-color:#ffffff;stop-opacity:0.0;"/>
				<stop  offset="1" style="stop-color:#FFFFFF"/>
			</linearGradient>
			<path opacity="0.75" fill="url(#refresh3)" d="M11,16.004L10.996,15h1.014
				c0.188,0,0.279-0.044,0.296-0.06c-0.007-0.001-0.009-0.105-0.097-0.276c0,0-2.115-4.235-3.209-6.426
				c-1.094,2.19-3.206,6.418-3.206,6.418l-0.004,0.008c-0.07,0.137-0.085,0.231-0.085,0.273c0,0.01,0.001,0.017,0.002,0.021
				C5.712,14.953,5.809,15,6.009,15l1.002,0c0,0-0.002,1.013-0.002,1.019L11,16.004z"/>
			<path fill="url(#refresh1)" d="M14,6v6c0.01,1.1,0.9,2,2.01,2c0.721,0,1.25,0.46,1.6,1.05c-0.149,0.15-0.35,0.24-0.459,0.42
				c-0.301,0.48-0.45,1.03-0.45,1.591c0,0.529,0.14,1.09,0.399,1.619l4.11,8.221c0.34,0.67,1.03,1.1,1.8,1.1
				c0.75,0,1.44-0.43,1.78-1.1l4.101-8.221c0.27-0.529,0.409-1.09,0.409-1.619c0-0.561-0.149-1.11-0.45-1.591
				c-0.24-0.39-0.609-0.67-1-0.92C27.13,8.62,22.12,4,16.01,4c-1.11,0-2.01,0.9-2,2H14z"/>
			<path fill="url(#refresh2)" d="M20,16c0.01-2.21-1.79-4-3.99-4L16,6c5.52,0,10,4.48,10.01,10c1.09,0,1.59,0.811,1.09,1.79L23,26
				l-4.1-8.21c-0.5-0.979,0-1.79,1.109-1.79H20z"/>
			<path opacity="0.75" fill="url(#refresh3)" d="M21,16h4c0.01-4.61-3.529-8.28-7.99-8.8l-0.01,4
				c2.26,0.48,4,2.4,4.01,4.8H21z"/>
		</g>
</svg>
