<svg width="32" height="32" viewBox="0 0 32 32">
	<g id="kill">
			<path fill="none" d="M32,32H0V0h32V32z"/>
		<linearGradient id="skull1" x1="50%" y1="100%" x2="50%" y2="0%">
			<stop stop-color="#d0d0d0" offset="0.00" />
			<stop stop-color="#b0b0b0" offset="1.00" />
		</linearGradient>
			<path fill="url(#skull1)" d="M22,4c0.01,0.34,0.11,0.66,0.19,0.98c-1.25,1.25-4.49,4.49-6.181,6.19
				c-1.71-1.7-4.95-4.94-6.2-6.19C9.89,4.66,10,4.34,10.01,4c0-2.21-1.8-4-4-4C4.38,0,2.99,0.98,2.37,2.37C0.98,2.99,0,4.38,0.01,6
				c0,2.21,1.78,4,4,4c0.33,0,0.65-0.11,0.97-0.19c1.25,1.25,4.49,4.49,6.19,6.19c-1.7,1.7-4.94,4.939-6.19,6.189
				C4.66,22.109,4.34,22,4.01,22c-2.22,0-4.01,1.79-4,4c0,1.62,0.97,3.01,2.36,3.63C2.99,31.02,4.38,32,6.01,32c2.2,0,3.99-1.79,4-4
				c0-0.34-0.12-0.66-0.2-0.98c1.25-1.25,4.49-4.489,6.2-6.189c1.69,1.7,4.931,4.939,6.181,6.189C22.11,27.34,22,27.66,22.01,28
				c0,2.21,1.78,4,4,4c1.61,0,3-0.98,3.62-2.37C31.021,29,32,27.62,32.01,26c0-2.21-1.8-4-4-4c-0.35,0-0.67,0.109-0.989,0.189
				c-1.25-1.25-4.49-4.489-6.19-6.189c1.7-1.7,4.94-4.94,6.19-6.19C27.34,9.89,27.66,10,28.01,10c2.2,0,3.99-1.79,4-4
				c0-1.62-0.989-3.01-2.38-3.63C29,0.98,27.62,0,26.01,0c-2.22,0-4.01,1.79-4,4H22z"/>
		<linearGradient id="skull2" x1="50%" y1="100%" x2="50%" y2="0%">
			<stop stop-color="#ffffff" offset="0.00" />
			<stop stop-color="#e0e0e0" offset="1.00" />
		</linearGradient>
			<path fill="url(#skull2)" d="M28,24c-0.55,0-1.05,0.23-1.41,0.59L18,16l8.59-8.59C26.95,7.78,27.45,8,28.01,8
				c1.091,0,1.99-0.9,2-2c0-1.1-0.909-2-2-2c0-1.1-0.909-2-2-2c-1.11,0-2.01,0.9-2,2c0,0.55,0.22,1.05,0.58,1.41L16,14L7.41,5.41
				C7.78,5.05,8,4.55,8.01,4c0-1.1-0.91-2-2-2C4.9,2,4,2.9,4.01,4C2.9,4,2,4.9,2.01,6c0,1.1,0.89,2,2,2c0.54,0,1.04-0.22,1.4-0.59
				L14,16l-8.59,8.59C5.05,24.23,4.55,24,4.01,24c-1.11,0-2.01,0.9-2,2c0,1.1,0.89,2,2,2c0,1.1,0.89,2,2,2c1.09,0,1.99-0.9,2-2
				c0-0.55-0.23-1.05-0.6-1.41L16,18l8.59,8.59c-0.36,0.36-0.59,0.86-0.58,1.41c0,1.1,0.89,2,2,2c1.091,0,1.99-0.9,2-2
				c1.091,0,1.99-0.9,2-2c0-1.1-0.909-2-2-2H28z"/>
		<linearGradient id="skull3" x1="50%" y1="100%" x2="50%" y2="0%">
			<stop stop-color="#ffffff" offset="0.00" stop-opacity="0.0" />
			<stop stop-color="#ffffff" offset="1.00"/>
		</linearGradient>
			<path fill="url(#skull3)" d="M27.5,4.5c0-0.55-0.95-1.5-1.49-1.5c-0.56,0-1.01,0.45-1,1c0,0.27,0.091,0.52,0.28,0.71
				c0.189,0.18,0.3,0.44,0.3,0.7c0,0.27-0.11,0.52-0.3,0.71l-8.58,8.59c-0.39,0.39-1.03,0.39-1.42,0L6.71,6.12
				c-0.19-0.19-0.3-0.44-0.3-0.71s0.11-0.52,0.3-0.7C6.9,4.52,7,4.27,7.01,4c0-0.55-0.46-1-1-1C5.45,3,4.5,3.95,4.5,4.5
				C3.95,4.5,3,5.45,3.01,6c0,0.55,0.44,1,1,1c0.26,0,0.51-0.1,0.7-0.29c0.18-0.19,0.44-0.3,0.7-0.3c0.26,0,0.52,0.11,0.71,0.3
				l8.59,8.58C14.9,15.49,15,15.74,15,16h2c0.01-0.26,0.101-0.51,0.29-0.71l8.59-8.58c0.189-0.19,0.439-0.3,0.71-0.3
				c0.261,0,0.521,0.11,0.7,0.3S27.729,7,28.01,7c0.54,0,0.99-0.45,1-1C29.01,5.45,28.05,4.5,27.5,4.5z"/>
			<path fill="url(#skull1)" d="M20,28c1.101,0,2-0.9,2.01-2c0,0-0.01-1.28,0-2.439c0.773-0.193,1.597-0.4,2.47-0.621
				C25.38,22.72,26,21.92,26.01,21L26,14c0.01-5.51-4.49-10-9.99-10C10.49,4,6,8.49,6.01,14L6,21c0.01,0.92,0.62,1.72,1.51,1.939
				c0,0,1.32,0.33,2.5,0.621c0,1.159-0.01,2.439,0,2.439c0,1.1,0.89,2,2,2H20z"/>
			<path fill="url(#skull2)" d="M16,6c-4.42,0-8,3.58-7.99,8L8,21l4,1v4h1.5l0.5-3l0.5,3h1l0.5-3l0.5,3h1l0.5-3l0.5,3H20v-4l4-1
				v-7c0.01-4.42-3.58-8-7.99-8H16z"/>
			<path fill="url(#skull3)" d="M23,16c0.01-1.11,0-2,0.01-2c0-3.86-3.149-7-7-7c-3.87,0-7.01,3.14-7,7c0,0-0.01,0.89,0,2H23z"/>
		<linearGradient id="skull4" x1="50%" y1="100%" x2="50%" y2="0%">
			<stop stop-color="#000000" offset="0.00" />
			<stop stop-color="#808080" offset="1.00" />
		</linearGradient>
			<path opacity="0.25" fill="url(#skull4)" d="M16,18l1,3h-2L16,18z"/>
		<linearGradient id="skull5" x1="50%" y1="100%" x2="50%" y2="0%">
			<stop stop-color="#808080" offset="0.00" />
			<stop stop-color="#000000" offset="1.00" />
		</linearGradient>
			<path opacity="0.25" fill="url(#skull5)" d="M14.5,17.5c-0.27,0.83-1.4,1.5-2.49,1.5
				c-1.11,0-2.24-0.45-2.51-1s0.39-1.15,1.47-1.33l2.06-0.34C14.11,16.15,14.77,16.67,14.5,17.5z"/>
		<linearGradient id="skull5" x1="50%" y1="100%" x2="50%" y2="0%">
			<stop stop-color="#808080" offset="0.00" />
			<stop stop-color="#000000" offset="1.00" />
		</linearGradient>
			<path opacity="0.25" fill="url(#skull5)" d="M17.5,17.5c0.271,0.83,1.399,1.5,2.51,1.5
				c1.091,0,2.22-0.45,2.49-1s-0.39-1.15-1.47-1.33l-2.061-0.34C17.89,16.15,17.229,16.67,17.5,17.5z"/>
		</g>
</svg>
