<svg width="32" height="32" viewBox="0 0 32 32">
		<g id="stop">
			<path fill="none" d=" M32.00 32.00 H0.00 V0.00 H32.00 V32.00 Z" />
			<linearGradient id="stop1" x1="50%" y1="100%" x2="50%" y2="0%">
				<stop stop-color="#ffcc99" offset="0.00" />
				<stop stop-color="#cc9966" offset="1.00" />
			</linearGradient>
			<path fill="url(#stop1)" d=" M26.00 8.00 C26.01 5.79 24.21 4.00 22.01 4.00
				C21.81 4.00 21.65 4.08 21.46 4.11 C20.78 2.87 19.51 2.00 18.01 2.00 C15.79
				2.00 14.00 3.79 14.01 6.00 C11.79 6.00 10.00 7.79 10.01 10.00 C10.01 10.00
				10.00 13.33 10.01 16.25 C8.38 15.01 6.06 15.11 4.59 16.59 C2.98 18.19
				2.98 20.81 4.59 22.41 L10.59 28.41 C12.17 30.00 14.76 30.00 16.01 30.00
				L24.00 30.00 C27.31 30.00 30.00 27.31 30.01 24.00 L30.00 12.00 C30.01
				9.79 28.21 8.00 26.01 8.00 Z" />
			<linearGradient id="stop2" x1="50%" y1="100%" x2="50%" y2="0%">
				<stop stop-color="#ffe5b2" offset="0.00" />
				<stop stop-color="#ffcc99" offset="1.00" />
			</linearGradient>
			<path fill="url(#stop2)" d=" M24.00 8.00 C24.01 6.90 23.10 6.00 22.01 6.00
				C20.91 6.00 20.02 6.88 20.00 7.97 L20.00 6.00 C20.01 4.90 19.10 4.00 18.01
				4.00 C16.90 4.00 16.00 4.90 16.01 6.00 L16.00 10.00 C16.01 8.90 15.10
				8.00 14.01 8.00 C12.90 8.00 12.00 8.90 12.01 10.00 L12.00 21.00 L9.00
				18.00 V18.00 C8.17 17.17 6.83 17.17 6.01 18.00 C5.17 18.83 5.17 20.17
				6.01 21.00 L12.00 27.00 C13.01 28.00 15.00 28.00 16.01 28.00 L24.00 28.00
				C26.21 28.00 28.00 26.21 28.01 24.00 L28.00 12.00 C28.01 10.90 27.10 10.00
				26.01 10.00 C24.92 10.00 24.04 10.86 24.01 11.94 L24.00 8.00 Z" />
			<linearGradient id="stop3" x1="50%" y1="100%" x2="50%" y2="0%">
				<stop stop-color="#ffffff" offset="0.00" stop-opacity="0.0"/>
				<stop stop-color="#ffffff" offset="0.50" stop-opacity="0.0"/>
				<stop stop-color="#ffffff" offset="1.00" />
			</linearGradient>
			<path fill="url(#stop3)"
				opacity="0.75" d=" M18.00 5.00 C17.45 5.00 17.00 5.45 17.01 6.00 L16.00
				18.00 H20.00 L19.00 6.00 C19.01 5.45 18.55 5.00 18.01 5.00 Z" />
			<path fill="url(#stop3)"
				opacity="0.75" d=" M26.00 11.00 C25.45 11.00 25.00 11.45 25.01 12.00 L24.00
				18.00 H27.00 V12.00 C27.01 11.45 26.55 11.00 26.01 11.00 Z" />
			<path fill="url(#stop3)"
				opacity="0.75" d=" M22.00 7.00 C21.45 7.00 21.00 7.45 21.01 8.00 L20.00
				18.00 H24.00 L23.00 8.00 C23.01 7.45 22.55 7.00 22.01 7.00 Z" />
			<path fill="url(#stop3)"
				opacity="0.75" d=" M14.00 9.00 C13.45 9.00 13.00 9.45 13.01 10.00 L13.00
				18.00 H16.00 L15.00 10.00 C15.01 9.45 14.55 9.00 14.01 9.00 Z" />
			<path fill="url(#stop3)"
				opacity="0.75" d=" M18.00 27.00 H24.00 C25.65 27.00 27.00 25.65 27.01
				24.00 L27.00 22.00 C27.01 20.35 25.65 19.00 24.01 19.00 L16.00 19.00 C15.11
				19.00 14.32 19.40 13.77 20.01 C15.10 20.27 16.87 21.17 18.01 24.00 L18.00
				27.00 Z" />
			<path fill="url(#stop3)"
				opacity="0.75" d=" M6.71 18.71 C6.50 18.92 6.38 19.20 6.38 19.50 C6.38
				19.80 6.50 20.08 6.71 20.29 L12.71 26.29 C13.41 27.00 15.23 27.00 16.01
				27.00 C16.01 27.00 16.50 27.00 17.01 27.00 C17.01 25.99 17.00 24.67 17.01
				24.30 C15.37 21.30 12.37 21.94 12.24 21.97 C11.90 22.05 11.54 21.95 11.29
				21.71 L8.29 18.71 C7.86 18.27 7.14 18.27 6.71 18.71 Z" />
			<path fill="#cc9966"
				opacity="0.50" d=" M24.01 11.94 C24.01 11.94 24.00 16.18 23.68 17.62 C22.26
				17.40 21.25 17.28 20.30 17.26 C20.06 15.32 20.01 9.19 20.01 7.03 C20.01
				7.57 19.99 14.88 19.70 17.25 C18.74 17.28 17.75 17.40 16.33 17.62 C16.01
				16.04 16.00 10.00 16.01 10.00 C16.01 10.00 16.00 16.36 15.64 17.73 C15.15
				17.81 13.61 17.90 13.01 18.00 L27.00 18.00 C26.39 17.90 24.85 17.81 24.35
				17.73 C24.09 16.78 24.02 13.55 24.01 11.94 Z" />
			<path fill="#cc9966"
				opacity="0.50" d=" M12.00 20.00 C12.01 20.00 16.00 19.00 18.01 24.00 C16.01
				20.00 12.00 21.00 12.01 21.00 L12.00 20.00 Z" />
	</g>
</svg>
