<svg width="32" height="32" viewBox="0 0 32 32">
		<g id="enqueued">
			<path fill="none" d="M32,32H0V0h32V32z"/>
			
				<linearGradient id="enqueued1" x1="50%" y1="100%"
					x2="50%" y2="0%">
				<stop  offset="0" style="stop-color:#0033CC"/>
				<stop  offset="1" style="stop-color:#000099"/>
			</linearGradient>
			<path fill="url(#enqueued1)" d="M30,16c0.01,7.73-6.27,14-13.99,14C8.27,30,2,23.73,2.01,16c0-7.73,6.26-14,14-14
				c7.721,0,13.99,6.27,14,14H30z"/>
			
				<linearGradient id="enqueued2" x1="50%" y1="100%"
					x2="50%" y2="0%">
				<stop  offset="0" style="stop-color:#0099FF"/>
				<stop  offset="1" style="stop-color:#0033CC"/>
			</linearGradient>
			<path fill="url(#enqueued2)" d="M28,16c0.01,6.63-5.37,12-11.99,12C9.37,28,4,22.63,4.01,16c0-6.63,5.36-12,12-12
				c6.62,0,11.99,5.37,12,12H28z"/>
			<path opacity="0.75" fill="#FFFFFF" enable-background="new    " d="M16,4.5V16l8.109-8.12c-2.08-2.08-4.93-3.38-8.1-3.38H16z"/>
			
				<linearGradient id="enqueued3" x1="50%" y1="100%"
					x2="50%" y2="0%">
				<stop  offset="0" style="stop-color:#ffffff;stop-opacity:0.0;"/>
				<stop  offset="1" style="stop-color:#FFFFFF"/>
			</linearGradient>
			<path opacity="0.75" fill="url(#enqueued3)" d="M5,16
				C5,9.925,9.925,5,16,5s11,4.925,11,11H5z"/>
	</g>
</svg>
