<svg width="32" height="32" viewBox="0 0 32 32">
		<g id="www">
			<path fill="none" d="M32,32H0V0h32V32z"/>
			<linearGradient id="www1" x1="50%" y1="100%" x2="50%" y2="0%">
				<stop  offset="0" style="stop-color:#0033CC"/>
				<stop  offset="1" style="stop-color:#000099"/>
			</linearGradient>
			<path fill="url(#www1)" d="M30,5c0.01-1.74-1.68-3-3.99-3H24c-2.32,0-4,1.26-3.99,3c0,0.72,0.33,1.32,0.83,1.82
				C20.35,7.48,20,8.23,20.01,9c0,0.78,0.35,1.47,0.9,2c-0.061,0.06-0.1,0.12-0.16,0.18c-0.7-0.75-1.689-1.18-2.74-1.18
				c-1.15,0-2.18,0.5-2.96,1.26C14.21,10.5,13.14,10,12.01,10c-1.15,0-2.22,0.5-3.06,1.26C8.17,10.5,7.14,10,6.01,10
				c-1.11,0-2.14,0.46-2.85,1.26c-0.71,0.8-1.03,1.88-0.9,2.97l1.51,12.03C4.03,28.359,5.89,30,8.01,30c1.67,0,3.21-1.04,4-2.51
				c0.77,1.47,2.31,2.51,4,2.51c2.1,0,3.961-1.641,4.221-3.74l1.35-10.74c0.54,0.3,1.199,0.48,1.92,0.48H25c2.76,0,5-2.24,5.01-5
				c0-1.28-0.529-2.42-1.32-3.31C29.41,6.93,30,5.99,30.01,5H30z"/>
			<linearGradient id="www2" x1="50%" y1="100%" x2="50%" y2="0%">
				<stop  offset="0" style="stop-color:#0099FF"/>
				<stop  offset="1" style="stop-color:#0033CC"/>
			</linearGradient>
			<path fill="url(#www2)" d="M18,12c-1.1,0-2.11,0.89-2.25,1.98l-0.42,3.35l-0.85-3.39C14.22,12.87,13.1,12,12.01,12
				c-1.11,0-2.23,0.87-2.49,1.94l-0.85,3.39l-0.42-3.35C8.11,12.89,7.1,12,6.01,12c-1.11,0-1.9,0.89-1.76,1.98l1.5,12.03
				C5.89,27.109,6.9,28,8.01,28c1.09,0,2.21-0.87,2.47-1.939L12,20l1.52,6.061C13.78,27.13,14.9,28,16.01,28
				c1.09,0,2.1-0.891,2.24-1.98l1.5-12.029c0.141-1.1-0.65-1.99-1.74-1.99H18z"/>
			
				<linearGradient id="www3" x1="50%" y1="100%" x2="50%" y2="0%">
				<stop  offset="0" style="stop-color:#ffffff;stop-opacity:0.0;"/>
				<stop  offset="1" style="stop-color:#FFFFFF"/>
			</linearGradient>
			<path opacity="0.75" fill="url(#www3)" d="M10.97,20l0.06-0.24c0.11-0.449,0.51-0.76,0.98-0.76
				c0.45,0,0.85,0.311,0.96,0.76L13.03,20h4.96l0.77-6.14c0.03-0.24-0.029-0.46-0.17-0.61C18.45,13.09,18.24,13,18.01,13
				c-0.609,0-1.189,0.52-1.27,1.11l-0.41,3.35c-0.06,0.479-0.45,0.84-0.94,0.87c-0.49,0.029-0.91-0.29-1.03-0.75l-0.85-3.4
				c-0.15-0.62-0.87-1.18-1.5-1.18c-0.65,0-1.37,0.56-1.52,1.18l-0.85,3.4c-0.12,0.46-0.55,0.779-1.03,0.75
				c-0.48-0.03-0.88-0.391-0.94-0.87l-0.41-3.35C7.18,13.52,6.6,13,6.01,13c-0.25,0-0.46,0.09-0.6,0.24
				c-0.14,0.16-0.2,0.38-0.17,0.62L6.01,20H10.97z"/>
			<path fill="url(#www2)" d="M25,8l1.34-0.89C27.25,6.5,28,5.55,28.01,5c0-0.55-0.91-1-2-1H24c-1.1,0-2,0.45-1.99,1
				c0,0.55,0.891,1,2,1H25l-1.34,0.89C22.75,7.5,22,8.45,22.01,9c0,0.55,0.67,1,1.49,1H25c0.55,0,1,0.45,1.01,1c0,0.55-0.46,1-1,1
				H23.5c-0.82,0-1.5,0.45-1.49,1c0,0.55,0.67,1,1.49,1H25c1.66,0,3-1.34,3.01-3c0-1.66-1.35-3-3-3H25z"/>
			
			<path opacity="0.75" fill="url(#www3)" d="M23.939,7.31C23.07,7.88,22.5,8.71,22.5,9h3.92
				c-0.41-0.29-0.88-0.5-1.41-0.5c-0.23,0-0.42-0.15-0.49-0.35c-0.069-0.2,0.01-0.44,0.201-0.57l1.34-0.89
				C26.93,6.12,27.5,5.29,27.5,5c0-0.1-0.48-0.5-1.49-0.5H24c-1.02,0-1.5,0.4-1.5,0.5s0.48,0.5,1.51,0.5H25
				c0.221,0,0.41,0.14,0.48,0.36c0.069,0.22-0.01,0.43-0.201,0.56L23.939,7.31z"/>
	</g>
</svg>
