<svg width="32" height="32" viewBox="0 0 32 32">
		<g id="play">
			<path fill="none" d="M32,32H0V0h32V32z"/>
			<linearGradient id="play1" x1="50%" y1="100%"
					x2="50%" y2="0%">
				<stop  offset="0" style="stop-color:#669900"/>
				<stop  offset="1" style="stop-color:#336600"/>
			</linearGradient>
			<path fill="url(#play1)" d="M14.2,25.609c0,1.951,1.15,2.641,1.65,2.851c0.2,0.08,0.54,0.19,0.96,0.19
				c0.619,0,1.399-0.221,2.219-1.041l10.58-10.579c0.781-0.78,0.781-2.05,0-2.83L19.029,3.61C17.65,2.23,16.34,2.56,15.85,2.77
				c-0.5,0.2-1.65,0.89-1.65,2.84V25.609z"/>
			<linearGradient id="play2" x1="50%" y1="100%"
					x2="50%" y2="0%">
				<stop  offset="0" style="stop-color:#99CC33"/>
				<stop  offset="1" style="stop-color:#669900"/>
			</linearGradient>
			<path fill="url(#play2)" d="M16.2,25.609c0,1.101,0.64,1.371,1.409,0.591L28.2,15.61L17.609,5.03
				C16.84,4.25,16.2,4.51,16.2,5.61V25.609z"/>
			<linearGradient id="play3" x1="50%" y1="100%"
					x2="50%" y2="0%">
				<stop  offset="0" style="stop-color:#ffffff;stop-opacity:0.0;"/>
				<stop  offset="1" style="stop-color:#FFFFFF"/>
			</linearGradient>
			<path opacity="0.75" fill="url(#play3)" d="M26.4,16c0.16-0.16,0.289-0.3,0.379-0.39
				c-1.189-1.19-9.059-9.07-9.579-9.58c0,0.4,0,5.24,0,9.97H26.4z"/>
			<path fill="url(#play1)" d="M6,2C3.79,2,2,3.79,2.01,6L2,26c0.01,2.21,1.79,4,4.01,4H8c2.21,0,4-1.79,4.01-4L12,6
				c0.01-2.21-1.79-4-3.99-4H6z"/>
			<path fill="url(#play2)" d="M10,26c0.01,1.1-0.9,2-1.99,2H6c-1.1,0-2-0.9-1.99-2L4,6c0.01-1.1,0.9-2,2.01-2H8
				c1.1,0,2,0.9,2.01,2L10,26z"/>
			<path opacity="0.75" fill="url(#play3)" d="M9,16V6c0.01-0.55-0.45-1-0.99-1H6
				C5.45,5,5,5.45,5.01,6L5,16H9z"/>
	</g>
</svg>
