<svg width="32" height="32" viewBox="0 0 32 32">
		<g id="done">
			<path fill="none" d="M32,32H0V0h32V32z"/>
				<linearGradient id="done1" x1="50%" y1="100%"
					x2="50%" y2="0%">
				<stop  offset="0" style="stop-color:#669900"/>
				<stop  offset="1" style="stop-color:#336600"/>
			</linearGradient>
			<path fill="url(#done1)" d="M19.17,7.29c0,0-3.2,3.2-5.16,5.18c-0.393-0.393-0.787-0.786-1.18-1.18
				c-1.56-1.56-4.1-1.56-5.66,0l-3.88,3.88c-1.56,1.561-1.56,4.1,0,5.66l7.88,7.88c0.76,0.75,1.76,1.17,2.83,1.17
				s2.07-0.42,2.83-1.17l11.88-11.88c1.56-1.56,1.56-4.1,0-5.66l-3.88-3.88C23.27,5.73,20.73,5.73,19.17,7.29z"/>
			
				<linearGradient id="done2" x1="50%" y1="100%"
					x2="50%" y2="0%">
				<stop  offset="0" style="stop-color:#99CC33"/>
				<stop  offset="1" style="stop-color:#669900"/>
			</linearGradient>
			<path fill="url(#done2)" d="M27.29,12.59l-3.88-3.88c-0.77-0.78-2.051-0.78-2.82,0L14,15.29l-2.59-2.58
				c-0.77-0.78-2.05-0.78-2.82,0l-3.88,3.88c-0.78,0.77-0.78,2.051,0,2.83l7.88,7.87c0.77,0.78,2.05,0.78,2.82,0l11.88-11.87
				C28.07,14.64,28.07,13.36,27.29,12.59z"/>
					<linearGradient id="done3" x1="50%" y1="100%"
					x2="50%" y2="0%">
					<stop  offset="0" style="stop-color:#ffffff;stop-opacity:0.0;"/>
					<stop  offset="1" style="stop-color:#FFFFFF"/>
				</linearGradient>
				<path opacity="0.75" fill="url(#done3)" d="M23.29,18l3.3-3.29
					c0.391-0.39,0.391-1.02,0-1.42l-3.88-3.87c-0.39-0.39-1.03-0.39-1.42,0L14,16.71l-3.29-3.3c-0.39-0.39-1.03-0.39-1.42,0
					l-3.88,3.88C5.23,17.48,5.12,17.73,5.12,18H23.29z"/>
	</g>
</svg>
