<svg width="32" height="32" viewBox="0 0 32 32">
		<g id="error">
			<path fill="none" d="M32,32H0V0h32V32z"/>
			<linearGradient id="error1" x1="50%" y1="100%"
					x2="50%" y2="0%">
				<stop  offset="0" style="stop-color:#CC3300"/>
				<stop  offset="1" style="stop-color:#990000"/>
			</linearGradient>
			<path fill="url(#error1)" d="M23.995,6c0.01-1.047-0.401-2.053-1.156-2.814C22.081,2.421,21.074,2,20.005,2h-8.01
				c-1.072,0-2.079,0.42-2.836,1.184C8.414,3.936,8.005,4.928,8.005,5.981C8.005,5.994,8,12.003,8,12.007
				c0,1.47,0.642,2.755,1.208,3.89C9.595,16.672,9.995,17.473,9.995,18c0.011,1.201,0.555,2.264,1.391,2.995
				c-0.074,0.065-0.156,0.118-0.227,0.188c-0.754,0.76-1.164,1.768-1.155,2.834l-0.01,1.973c0.021,2.224,1.819,4.01,4.011,4.01h3.99
				c2.191,0,3.99-1.786,4.01-3.982l-0.01-2.026c0.01-1.037-0.401-2.043-1.156-2.804c-0.07-0.071-0.152-0.123-0.227-0.188
				c0.837-0.729,1.382-1.789,1.393-2.98c-0.003-0.551,0.398-1.352,0.786-2.126c0.568-1.135,1.213-2.422,1.209-3.896L23.995,6z"/>
			<linearGradient id="error2" x1="50%" y1="100%"
					x2="50%" y2="0%">
				<stop  offset="0" style="stop-color:#FF9900"/>
				<stop  offset="1" style="stop-color:#CC3300"/>
			</linearGradient>
			<path fill="url(#error2)" d="M21.995,6c0.01-1.1-0.9-2-1.99-2h-8.01c-1.1,0-2,0.9-1.99,2c0,0,0,4-0.005,6s1.995,4,1.995,6
				c0.01,1.1,0.9,2,2.01,2h3.99c1.1,0,2-0.9,2.01-2c-0.01-2,2-4,1.995-6S21.995,6,21.995,6z"/>
			<path fill="url(#error2)" d="M11.995,26c0.01,1.1,0.9,2,2.01,2h3.99c1.1,0,2-0.9,2.01-2l-0.01-2c0.01-1.1-0.9-2-1.99-2h-4.01
				c-1.1,0-2,0.9-1.99,2L11.995,26z"/>
			<linearGradient id="error3" x1="50%" y1="100%"
					x2="50%" y2="0%">
				<stop  offset="0" style="stop-color:#ffffff;stop-opacity:0.0;"/>
				<stop  offset="1" style="stop-color:#FFFFFF"/>
			</linearGradient>
			<path opacity="0.75" fill="url(#error3)" d="M18.995,25v-1c0.01-0.55-0.45-1-0.99-1h-4.01
				c-0.55,0-1,0.45-0.99,1l-0.01,1H18.995z"/>
			<path opacity="0.75" fill="url(#error3)" d="M20.995,12V6c0.01-0.55-0.45-1-0.99-1h-8.01
				c-0.55,0-1,0.45-0.99,1l-0.01,6H20.995z"/>
	</g>
</svg>
