<svg width="32" height="32" viewBox="0 0 32 32">
		<g id="delete">
			<path fill="none" d="M32,32H0V0h32V32z"/>
			
				<linearGradient id="delete1" x1="50%" y1="100%"
					x2="50%" y2="0%">
				<stop  offset="0" style="stop-color:#CC3300"/>
				<stop  offset="1" style="stop-color:#990000"/>
			</linearGradient>
			<path fill="url(#delete1)" d="M19.17,3.29c0,0-1.82,1.82-3.16,3.18c-0.906-0.906-1.966-1.966-3.18-3.18
				c-1.56-1.56-4.1-1.56-5.66,0L3.29,7.17C2.51,7.95,2.12,8.98,2.12,10s0.39,2.05,1.17,2.83c0,0,1.82,1.82,3.17,3.17
				c-0.9,0.9-1.957,1.957-3.17,3.17C2.51,19.95,2.12,20.98,2.12,22s0.39,2.05,1.17,2.83l3.88,3.88c0.76,0.75,1.76,1.17,2.83,1.17
				s2.07-0.42,2.83-1.17c0,0,1.82-1.819,3.17-3.17c0.9,0.899,1.957,1.956,3.17,3.17c0.76,0.75,1.76,1.17,2.83,1.17
				s2.07-0.42,2.83-1.17l3.88-3.88c0.78-0.78,1.17-1.811,1.17-2.83s-0.39-2.05-1.17-2.83c0,0-1.819-1.82-3.181-3.17
				c0.907-0.9,1.967-1.957,3.181-3.17c0.78-0.78,1.17-1.81,1.17-2.83s-0.39-2.05-1.17-2.83l-3.88-3.88
				C23.27,1.73,20.73,1.73,19.17,3.29z"/>
			
				<linearGradient id="delete2" x1="50%" y1="100%"
					x2="50%" y2="0%">
				<stop  offset="0" style="stop-color:#FF9900"/>
				<stop  offset="1" style="stop-color:#CC3300"/>
			</linearGradient>
			<path fill="url(#delete2)" d="M22.71,16l4.58-4.59c0.78-0.77,0.78-2.05,0-2.82l-3.88-3.88c-0.77-0.78-2.051-0.78-2.82,0L16,9.29
				l-4.59-4.58c-0.77-0.78-2.05-0.78-2.82,0L4.71,8.59c-0.78,0.77-0.78,2.05,0,2.82L9.29,16l-4.58,4.59
				c-0.78,0.77-0.78,2.051,0,2.83l3.88,3.87c0.77,0.78,2.05,0.78,2.82,0L16,22.71l4.59,4.58c0.77,0.78,2.051,0.78,2.82,0l3.88-3.87
				c0.78-0.779,0.78-2.061,0-2.83L22.71,16z"/>
			
				<linearGradient id="delete3" x1="50%" y1="100%"
					x2="50%" y2="0%">
				<stop  offset="0" style="stop-color:#ffffff;stop-opacity:0.0;"/>
				<stop  offset="1" style="stop-color:#FFFFFF"/>
			</linearGradient>
			<path opacity="0.75" fill="url(#delete3)" d="M10.71,16h10.58
				l5.3-5.29c0.391-0.39,0.391-1.03,0-1.42l-3.88-3.88c-0.39-0.39-1.03-0.39-1.42,0L16,10.71l-5.29-5.3c-0.39-0.38-1.03-0.38-1.42,0
				L5.41,9.29c-0.39,0.39-0.39,1.03,0,1.42L10.71,16z"/>
	</g>
</svg>
