<svg width="96" height="64" viewBox="0 0 96 64">
	<path fill="none" d="M96,64H0V0h96V64z"/>
	<g id="button">
			<linearGradient id="button1" x1="50%" y1="100%" x2="50%" y2="0%">
				<stop  offset="0" style="stop-color:#D9D9D9"/>
				<stop  offset="1" style="stop-color:#B2B2B2"/>
			</linearGradient>
			<path fill="url(#button1)" d="M83,4H13c-2.21,0-4,1.79-3.99,4L9,56c0.01,2.21,1.79,4,4.01,4H83c2.21,0,4-1.79,4.01-4L87,8
				c0.01-2.21-1.79-4-3.99-4H83z M85,56c0.01,1.1-0.9,2-1.99,2H13c-1.1,0-2-0.9-1.99-2L11,8c0.01-1.1,0.9-2,2.01-2H83
				c1.1,0,2,0.9,2.01,2L85,56z"/>
			<linearGradient id="button2" x1="50%" y1="100%" x2="50%" y2="0%">
				<stop  offset="0" style="stop-color:#FFFFFF"/>
				<stop  offset="1" style="stop-color:#d0d0d0;stop-opacity:0.5;"/>
			</linearGradient>
			<path fill="url(#button2)" d="M11,56c0.01,1.1,0.9,2,2.01,2H83c1.1,0,2-0.9,2.01-2L85,8c0.01-1.1-0.9-2-1.99-2H13
				c-1.1,0-2,0.9-1.99,2L11,56z"/>
			<linearGradient id="button3" x1="50%" y1="100%" x2="50%" y2="0%">
				<stop  offset="0" style="stop-color:#FFFFFF;stop-opacity:0.0;"/>
				<stop  offset="1" style="stop-color:#FFFFFF;stop-opacity:1.0;"/>
			</linearGradient>
			<path opacity="0.75" fill="url(#button3)" d="M84,32V8
				c0.01-0.55-0.45-1-0.99-1H13c-0.55,0-1,0.45-0.99,1L12,32H84z"/>
	</g>
</svg>
