<svg width="64" height="64" viewBox="0 0 64 64">
<g id="file">
			<path fill="none" d=" M64.00 64.00 H0.00 V0.00 H64.00 V64.00 Z" />
			<g>
				<linearGradient id="file1" x1="50%" y1="100%"
					x2="50%" y2="0%">
					<stop stop-color="#d9d9d9" offset="0.00" />
					<stop stop-color="#b2b2b2" offset="1.00" />
				</linearGradient>
				<path fill="url(#file1)" d=" M51.00 4.00 H13.00 C10.79 4.00 9.00 5.79
					9.01 8.00 L9.00 56.00 C9.01 58.21 10.79 60.00 13.01 60.00 L51.00 60.00
					C53.21 60.00 55.00 58.21 55.01 56.00 L55.00 8.00 C55.01 5.79 53.21
					4.00 51.01 4.00 Z M53.00 56.00 C53.01 57.10 52.10 58.00 51.01 58.00
					L13.00 58.00 C11.90 58.00 11.00 57.10 11.01 56.00 L11.00 8.00 C11.01
					6.90 11.90 6.00 13.01 6.00 L51.00 6.00 C52.10 6.00 53.00 6.90 53.01
					8.00 L53.00 56.00 Z " />
				<linearGradient id="file2"  x1="50%" y1="100%"
					x2="50%" y2="0%">
					<stop stop-color="#ffffff" offset="0.00" />
					<stop stop-color="#d0d0d0" offset="1.00" stop-opacity="0.5" />
				</linearGradient>
				<path fill="url(#file2)" d=" M11.00 56.00 C11.01 57.10 11.90 58.00 13.01
					58.00 L51.00 58.00 C52.10 58.00 53.00 57.10 53.01 56.00 L53.00 8.00
					C53.01 6.90 52.10 6.00 51.01 6.00 L13.00 6.00 C11.90 6.00 11.00 6.90
					11.01 8.00 L11.00 56.00 Z" />
				<linearGradient id="file3"  x1="50%" y1="100%"
					x2="50%" y2="0%">
					<stop stop-color="#ffffff" offset="0.00" stop-opacity="0.0"/>
					<stop stop-color="#ffffff" offset="1.00" />
				</linearGradient>
				<path fill="url(#file3)"
					opacity="0.75" d=" M52.00 32.00 V8.00 C52.01 7.45 51.55 7.00 51.01
					7.00 L13.00 7.00 C12.45 7.00 12.00 7.45 12.01 8.00 L12.00 32.00 H52.00
					Z" />
			</g>
	</g>
</svg>